<?xml version="1.0" encoding="UTF-8"?>
<!DOCTYPE svg PUBLIC "-//W3C//DTD SVG 1.1//EN" "http://www.w3.org/Graphics/SVG/1.1/DTD/svg11.dtd">
<!-- Creator: CorelDRAW 2018 (64 Bit Versão de avaliação) -->
<svg xmlns="http://www.w3.org/2000/svg" xml:space="preserve" width="45.7964mm" height="7.7468mm" version="1.1" shape-rendering="geometricPrecision" text-rendering="geometricPrecision" image-rendering="optimizeQuality" fill-rule="evenodd" clip-rule="evenodd"
viewBox="0 0 1112.97 188.27"
 xmlns:xlink="http://www.w3.org/1999/xlink">
 <g id="Camada_x0020_1">
  <metadata id="CorelCorpID_0Corel-Layer"/>
  <g id="_2310675426736">
   <path fill="#737274" d="M606.82 76.9c-1.09,5.15 -4.59,9.53 -7.15,13.44l-8.73 11.7c-1.42,1.64 -3.64,3.86 -4.83,5.5 -0.81,1.12 -1.78,1.48 -2.72,2.44 -2.39,2.45 -5.96,5.03 -9.57,5.69 -10.24,1.87 -37.54,2.05 -48.8,2.27 -3.53,0.07 -6.78,-0.17 -10.12,-0.17 -5.7,0 -14.95,0.16 -20.25,-0.31 -5.66,-0.49 -3.84,-0.49 -8.35,-1.57 -1.51,-0.41 -2.84,-1.46 -3.49,-2.48 -5.05,-7.87 18.92,-33.5 23.59,-37.7 5.77,-5.18 8.34,-5.66 16.96,-5.73 15.2,-0.13 30.43,-0.17 45.63,-0.06 7.89,0.06 25.88,0.06 33.47,0.84 1.93,0.2 3.22,0.49 4.08,1.7 0.63,0.89 1.1,3.3 0.29,4.44zm-160.45 53.41c0.28,-0.38 0.46,0.01 1.13,0.43l4.64 2.19c2.22,0.78 4.6,1.35 7.08,1.81 11.27,2.11 22.96,1.43 34.2,1.73 30.01,0.79 55.67,0.99 85.87,-2.56 4.99,-0.59 10.47,-1.29 15.27,-2.43 12.97,-3.06 29.24,-23.74 37.37,-34.27 21.77,-28.21 16.87,-34.13 17.92,-35.84 -0.54,-1.17 -0.53,-2.17 -1.42,-3.55 -1.72,-2.64 -5.81,-4.48 -8.9,-5.36 -7.15,-2.02 -9.89,-1.71 -16.82,-2.41 -5.82,-0.59 -12.31,-0.31 -18.44,-0.78 -2.76,-0.21 -6.6,-0.12 -9.28,-0.19 -5.62,-0.16 -13.33,0 -19.21,0l-9.28 0.17c-2.95,-0 -6.87,-0.22 -9.71,0.03 -3.21,0.29 -11.78,0.13 -14.1,0.4l-9.1 0.35c-1.17,0.13 -3.4,0.2 -4.46,0.22 -6.16,0.12 -11.8,0.72 -17.57,1.49 -3.39,0.46 -12.77,2.29 -15.84,3.39 -5.18,1.85 -13.45,7.18 -17.86,11.05 -0.95,0.83 -1.64,1.4 -2.63,2.12 -0.82,0.6 -1.72,1.51 -2.52,2.22 -3.4,3.01 -6.38,6.23 -9.58,9.42 -3.67,3.67 -4.12,4.5 -6.83,7.63 -0.71,0.82 -1.44,1.61 -2.1,2.64 -0.67,1.05 -1.4,1.82 -2.05,2.91 -5.19,8.73 -13.15,21.15 -9.84,31.64 0.84,2.65 2.61,3.91 4.03,5.53z"/>
   <path fill="#737274" d="M895.1 134.04c1.13,0.11 3.4,0.98 4.9,1.31 17.77,3.98 74.91,3.47 91.59,2.97 14.83,-0.44 32.37,-1.37 46.11,-4.7 11.51,-2.79 19.66,-9.1 27.17,-17.21 1.14,-1.24 1.77,-2.33 2.89,-3.53l8.98 -0.06c-0.81,-0.33 -7.83,-0.16 -8.65,-0.17 0.44,-1.05 2.22,-2.96 2.92,-5.08l-36.71 -0c-1.06,2.87 -4.68,5.48 -7.2,7.01 -6.97,4.22 -15.79,3.89 -23.98,4.51 -2.22,0.17 -4.77,0 -6.93,0.26 -2.87,0.35 -17.73,0.42 -20.92,0.42l-14.04 -0.17c-4.78,0.02 -9.49,-0.3 -14.05,-0.33 -4.34,-0.02 -8.92,-0.75 -13.18,-1.04l-0.05 -0.98 -0.36 0.84c-0.01,-0.02 -0.01,0.08 -0.02,0.12 -3.33,-0.78 -5.6,-1.98 -5.49,-5.89 0.08,-3.1 1.66,-6.11 2.84,-8.46 2.4,-4.77 10.58,-15.83 14.34,-20.14l4.21 -4.46c0.54,-0.46 0.9,-0.75 1.45,-1.23 4.34,-3.84 9.17,-5.91 16.93,-6.04 15.12,-0.24 30.28,-0.44 45.42,-0.41 7.58,0.01 15.14,0.09 22.71,0.26 3.57,0.08 7.24,0.21 10.78,0.54 4.38,0.41 5.05,1.16 6.21,5.03l-1.93 0c0.51,0.42 -0.09,0.19 0.83,0.3 0.21,0.02 0.87,-0.01 1.09,-0.01l0.45 3.13 4.72 0.09c0.45,-0.35 0.53,-0.24 1.79,-0.23l30.56 -0.13c0.77,-0.19 2.19,-3.54 2.48,-4.19 2.04,-4.6 3.63,-9.75 2.1,-14.76 -0.05,-0.17 -0.12,-0.42 -0.1,-0.58l0.17 -0.39c-0.75,-0.64 -0.7,-1.29 -2.22,-2.81 -2.73,-2.73 -6.37,-3.63 -10.46,-4.07 -5.74,-0.62 -11.46,-1.18 -17.36,-1.75 -22.22,-2.13 -52.45,-0.26 -75.36,-0.26l-9.5 0.19c-3.14,0.23 -6.23,0.06 -9.24,0.35 -3.03,0.28 -5.96,0.39 -9.12,0.64 -7.39,0.6 -16.74,2.57 -23.26,5.35 -5.91,2.52 -14.47,7.84 -19.32,12.05l-3.7 3.32c-0.85,0.86 -1.7,1.57 -2.54,2.41 -7.04,7.03 -7.59,7.93 -13.38,15.33 -3.18,4.07 -6.62,10.21 -8.76,15.17 -3.53,8.18 -6.61,23.34 4.2,27.48z"/>
   <path fill="#737274" d="M247.8 133.12c-0.11,-0.76 -0.09,-0.17 0.26,-0.41 4.84,3.49 38.55,4.09 46.06,4.4 23.87,0.99 73.64,0.69 95.93,-4.74 6.73,-1.64 11.81,-4.16 17.24,-8.15 2.75,-2.02 4.6,-3.57 6.84,-5.75 1.08,-1.05 2.17,-2.06 3.15,-3.26 0.85,-1.04 2.26,-2.42 2.79,-3.6 0.77,0.18 1.19,0.34 1.75,-0.18l-1.3 0.08 1.59 -2.61c0.62,-1 1.03,-1.52 1.37,-2.73l-36.54 0.22c-0.48,0.46 -0.96,1.52 -1.52,2.15 -2.5,2.86 -7.33,6.08 -10.82,7.12 -3.47,1.04 -15.61,2.1 -19.3,2.09 -4.35,-0.02 -9.06,0.5 -13.62,0.5 -5.99,0 -23.89,0.57 -28.45,0.14 -2.15,-0.2 -4.79,0.04 -7.03,-0.17 -1.72,-0.16 -4.79,-0.32 -6.63,-0.31 -5.73,0.03 -8.49,-0.69 -13.18,-1.03 -3.4,-0.12 -5.85,-2.17 -5.84,-5.63 0.02,-6.84 8.43,-17.4 12.03,-22.26 3.51,-4.74 6.65,-8.69 10.71,-12.2 4.36,-3.76 9.03,-5.97 16.83,-6.11 15.16,-0.28 30.34,-0.4 45.51,-0.39 9.48,0 24.22,-0.1 33.61,0.79 3.01,0.28 4.2,0.29 5.52,3.11 1.11,2.38 0.52,1.98 0.28,2.16 0.74,0.78 0.65,1.81 0.65,3.15l4.89 0.01c0.67,-0.39 29.17,-0.2 32.7,-0.25 2.77,-5.14 6.28,-12.43 4.37,-18.65 0,-0 -0.17,-0.62 -0.17,-0.62 0,-0.74 -0.29,-0.12 0.19,-0.59 -1.7,-1.45 -1.99,-5.69 -12.54,-6.9 -6.98,-0.8 -19.46,-2.17 -26.55,-2.4 -2.8,-0.09 -6.66,0.08 -9.4,-0.24l-19.06 -0.06c-2.96,0.29 -6.4,0.14 -9.54,0.13 -3.08,-0 -6.2,0.17 -9.5,0.17 -8.62,-0.02 -19.48,0.34 -28.28,0.67l-14.02 0.51c-9.39,0.58 -19.32,2.3 -27.81,5.77 -3.38,1.38 -9.4,4.81 -12.32,6.88l-5.61 4.08c-1.74,1.3 -3.59,3.04 -5.03,4.48 -0.55,0.54 -0.8,0.57 -1.4,1.07l-3.62 3.61c-1.93,1.92 -1.1,1.23 -2.21,2.54 -0.65,0.77 -1.59,1.66 -2.3,2.44 -2.63,2.88 -6.23,7.63 -8.44,10.96 -5.95,8.96 -14.18,24.79 -7.57,35.83 1.54,2.58 3.35,2.59 5.33,4.18z"/>
   <path fill="#14A958" d="M293.23 168.24c-6.84,0 -14.39,0.9 -21.39,1.11 -24.37,0.74 -40.62,0.44 -65.38,-1.49 -40.11,-3.12 -78.9,-7.68 -117.45,-17.58 -17.64,-4.53 -51.23,-14.17 -59.49,-30.54 -3.64,-7.22 -1.71,-11.62 2.51,-16.32 3.45,-3.84 7.3,-6.8 12.15,-10.14 16.93,-11.64 40.73,-21.79 60.35,-29.66 18.95,-7.6 49.01,-15.4 69.59,-20.44 24.48,-6 48.67,-11.22 73.98,-16.02 21.75,-4.12 46.39,-7.56 68.68,-9.89l9.1 -0.85c1.17,-0.19 0.56,0.01 1.1,-0.48 -15.45,-0.5 -31.96,0.44 -47.25,1.67 -52.14,4.17 -116.62,15.68 -166.48,30.16 -12.54,3.64 -25.27,7.51 -37.07,12.07 -15.25,5.89 -44.93,18.81 -57.84,28.05 -3.67,2.62 -5.25,3.75 -8.41,6.87 -0.54,0.53 -0.99,0.9 -1.59,1.51 -8.15,8.18 -11.06,21.5 -5.42,31.7 5.19,9.41 16.22,16.02 27.97,21.17 23.12,10.14 52.8,14.5 80.07,18.22 29.16,3.97 60.81,7.07 90.74,7.39 24.86,0.26 45.8,-0.71 70.21,-3.41 3.37,-0.37 19.5,-2.19 21.31,-3.09z"/>
   <path fill="#727272" d="M671.71 68.46c1.08,-0.74 5.15,-0.36 6.48,-0.36l20.44 0.05c6.02,0.01 22.37,-0.25 27.14,0.08 -0.3,0.8 -1.08,1.89 -1.59,2.72 -0.45,0.73 -1.12,2.19 -1.73,2.45 -0.36,0.89 -0.8,1.33 -1.29,2.17l-6.25 10.06c-0.73,1.27 -1.78,2.72 -2.46,3.94 -0.43,0.78 -0.79,1.28 -1.28,2.03 -3.51,5.32 -7.59,12.49 -11.23,18.08l-17.34 27.96 8.82 0.01c4,-0.65 25.73,0.57 26.83,-0.15l42.53 -64.02c0.74,-1.12 1.99,-3.29 2.89,-4.23l63.86 0.13c0.65,-1.4 6.83,-12.67 7.46,-13.23 0.4,-0.7 0.97,-1.8 1.41,-2.64 0.49,-0.94 1.03,-1.71 1.31,-2.57l-164.27 -0.68c-0.72,0.5 -2.17,3.52 -2.69,4.42 -0.92,1.56 -1.72,3.11 -2.52,4.51l-4.89 8.94c1.51,0.03 3.02,0.01 4.53,0.01 1.14,0 3.94,-0.27 3.84,0.33z"/>
   <path fill="#107849" d="M284.88 166.02c-12.84,-0.76 -25.5,-1.01 -38.31,-2 -24.67,-1.91 -48.03,-4.5 -72.45,-8.04 -11.33,-1.64 -23.24,-3.48 -33.94,-6.3 -20.94,-5.51 -41.4,-13.49 -56.41,-24.12 -14.33,-10.15 -21.37,-22.59 -10.49,-39.12 1.72,-2.61 4.64,-6.04 6.87,-8.2 0.71,-0.69 2,-1.6 2.55,-2.57 -1.24,0.3 -6.49,2.88 -7.94,3.57 -7.84,3.75 -14.7,7.32 -22.13,11.73 -6.17,3.65 -23.51,14.3 -22.36,22.68 4.17,30.32 107.08,44.28 133.46,47.34 37.96,4.41 67.71,7.03 104.28,5.86 2.61,-0.09 15.23,-0.45 16.87,-0.85z"/>
   <path fill="#F2683A" d="M279.04 162.75c-0.29,-0.06 -0.77,-0.1 -1.09,-0.14l-29.88 -4.39c-27.33,-4.11 -66.94,-10.48 -91.48,-18.36 -22.81,-7.32 -77.07,-27.27 -65.23,-59.87 1.17,-3.23 3.03,-6.04 5.05,-8.59 0.7,-0.88 1.45,-1.63 2.04,-2.47 -5.24,1.37 -9.63,5.15 -12.88,7.94 -7.37,6.33 -15.4,15.44 -14.91,26.56 0.85,19.59 43.1,36.14 61.93,41.45 22.25,6.27 47.19,9.58 70.51,12.3 12.5,1.46 25.09,2.73 37.69,3.77 6.44,0.53 12.88,1.01 19.35,1.36 6.45,0.34 13.46,0.89 19.95,0.86l-1.05 -0.41z"/>
   <path fill="#727272" d="M816.06 136.24c0.99,-0.81 4.39,-0.61 6.69,-0.8 2.29,-0.19 4.58,-0.44 6.8,-0.81 4.38,-0.73 8.06,-1.69 11.9,-3.19 8.71,-3.4 11.11,-7.76 15.86,-14.29 6.32,-8.69 14.71,-22.31 20.7,-32.15 0.81,-1.32 2,-3.64 2.93,-4.73l7.88 0.03c1.18,0.11 0.69,-0.19 0.73,0.38 0.25,-0.29 0.34,0.45 0.2,-0.57l-8.58 -0.06c0.45,-0.88 2.73,-4.29 2.83,-5.08l-36.93 -0.26 -32.33 49.62c-0.44,0.66 -0.76,1.08 -1.26,1.84l-6.09 9.47 6.88 0.16c2.26,-0.04 1.97,-0.12 1.81,0.44z"/>
   <path fill="#107849" d="M31.95 76.75l9.87 -4.82c9.14,-4.43 21.65,-9.97 31,-13.59 14.16,-5.49 29.67,-10.42 44.93,-14.54 53.52,-14.46 121.07,-27.06 177.93,-29.87 9.4,-0.46 18.64,-1.31 28.04,-1.85 18.95,-1.08 38.14,-1.91 57.2,-2.28 9.61,-0.19 19.28,-0.51 28.9,-0.69l27.26 -0.61c0.67,-0.01 1.21,0.02 1.77,-0.27 -19.64,-0.3 -39.29,-0.44 -58.96,-0.63 -61.15,-0.57 -106.82,0.7 -168.35,10.21 -35.14,5.43 -63.54,12.13 -97.32,21.83 -14.02,4.03 -52.91,16.81 -65.35,24.05 -7.22,4.2 -7.71,4.88 -13.07,9.23 -0.81,0.66 -3.38,3.06 -3.84,3.83z"/>
   <path fill="#F2683A" d="M52.86 58.58l9.76 -4.02c9.75,-3.86 20.86,-7.91 30.79,-11.13 44.93,-14.56 89.32,-24.95 136.55,-30.89 34.13,-4.29 68.97,-7.16 104.08,-7.61 18.51,-0.24 37.03,-0.01 55.53,0.15l41.68 0.42c4.48,0.09 9.44,0.29 13.96,0.13l-6.29 -0.85c-2.22,-0.2 -4.42,-0.4 -6.62,-0.61 -34.15,-3.1 -60.05,-4.79 -95.36,-3.98 -74.7,1.7 -176.39,12.35 -245.81,39.49 -12.05,4.71 -18.31,7.51 -29.28,13.45 -1.78,0.96 -7.71,4.39 -8.98,5.44z"/>
   <path fill="#292929" d="M446.37 130.31c-0.04,0.99 0.85,2.7 1.3,3.57 0.66,1.26 1.11,2 2.08,2.68 5.89,4.14 16.29,4.32 23.53,5.17 2.97,0.35 6.08,0.19 9.19,0.52 3.52,0.37 33.46,0.91 37.37,0.91 9.64,0 36.48,-0.12 46.58,-1.22 13.5,-1.47 31.83,-1.55 42.77,-9.87 0.5,-0.38 0.88,-0.73 1.37,-1.1 5.93,-4.51 10.69,-9.84 15.65,-15.32l5.35 -6.61c4.16,-4.93 7.54,-10.07 11.24,-15 0.46,-0.62 0.61,-0.95 0.99,-1.49 1.87,-2.62 5.4,-7.81 6.52,-10.2 1.2,-2.57 1.92,-3.96 2.67,-6.81 1.14,-4.33 1.44,-10.84 -2.44,-13.82 -0.63,-0.49 -0.03,-0.19 -0.68,-0.34 -1.05,1.72 3.84,7.63 -17.92,35.84 -8.13,10.54 -24.4,31.21 -37.37,34.27 -4.81,1.14 -10.28,1.84 -15.27,2.43 -30.2,3.56 -55.85,3.36 -85.87,2.56 -11.24,-0.3 -22.93,0.38 -34.2,-1.73 -2.48,-0.46 -4.86,-1.03 -7.08,-1.81l-4.64 -2.19c-0.67,-0.42 -0.85,-0.81 -1.13,-0.43z"/>
   <path fill="#107849" d="M918.53 179.74l-4.76 0.24c0.51,-1.53 11.22,-17.39 12.07,-19.43 4.12,-0.06 13.57,0.16 15.5,3 1.78,2.35 -2.66,8.55 -4.11,10 -4.68,4.68 -11.57,5.82 -18.7,6.19zm-25.04 5.45c1.77,-0.59 20.43,-0.13 24.39,-0.29 7.56,-0.31 15.01,-0.87 22.2,-2.35 6.55,-1.35 13.06,-3.55 17.64,-6.88 3.49,-2.54 9.36,-8.59 6.02,-13.45l-1.06 -1.21c-0.37,-0.38 -0.12,-0.03 -0.43,-0.48 -2.24,-1.98 -8.02,-3.31 -11.11,-3.87 -4.01,-0.73 -9.11,-1.16 -13.66,-1.31 -4.98,-0.16 -25.63,-0.44 -29.73,-0.12 -0.53,0.83 -0.58,1.2 -1.12,1.99 -3.55,5.24 -6.94,11.24 -10.64,16.81l-5.91 9.38c-0.26,0.37 -0.41,0.5 -0.65,0.8 -0.49,0.58 -0.4,0.11 -0.43,0.89l4.48 0.1z"/>
   <path fill="#292929" d="M691.41 137.65c-0.38,1.22 -2.66,3.96 -2.97,5.12l35.17 0.22c0.84,-0.32 2.46,-3.16 3.1,-4.07 0.55,-0.78 0.86,-1.37 1.48,-2.23l4.31 -6.43c2.53,-4.18 5.91,-8.79 8.46,-12.8l24.31 -36.59c0.52,-0.78 0.9,-1.39 1.4,-2.11l2.72 -4.21 63.64 0.11c0.65,-0.1 2.43,-3.77 2.84,-4.53 1.3,-2.4 7.38,-13.03 7.59,-14.01l-8.47 0.03c-0.64,0.56 -6.81,11.83 -7.46,13.23l-63.86 -0.13c-0.91,0.95 -2.15,3.11 -2.89,4.23l-42.53 64.02c-1.1,0.72 -22.84,-0.5 -26.83,0.15z"/>
   <path fill="#107849" d="M680.29 168.42c1.34,0.03 9.39,2.56 11.29,3.14 1.84,0.56 3.79,1.02 5.6,1.62 0.96,0.31 1.8,0.61 2.76,0.97 0.88,0.33 1.67,0.83 2.49,1.09 -0.37,0.24 0.53,0.43 -0.59,0.15 0.62,0.59 1.02,0.3 1.75,1.11 1.55,1.72 -1.4,3.33 -2.99,3.83 -2.17,0.67 -7.27,1.45 -9.81,0.71 -0.94,0.68 -4.5,-1.35 -3.23,-2.65 0.27,-0.79 0.79,-1.1 1.23,-1.82l-23.55 0c-0.86,1.95 -1.46,3.55 0.02,5.42 1.08,1.37 4.25,2.5 4.25,2.5 0.02,-0.04 0.09,0.03 0.14,0.05 1.26,0.04 2.53,0.56 3.81,0.79 4.13,0.76 8.79,1.03 12.98,1.1 9.24,0.16 32.65,-0.6 39.34,-7.35 3.31,-3.35 -0.39,-5.05 -0.65,-6.09 -0.98,-0.42 -1.67,-0.9 -2.66,-1.36 -5.17,-2.39 -14.75,-4.56 -20.37,-6.1 -1.44,-0.18 -3.21,-1.15 -3.69,-2.26 0.06,-2.63 4.2,-2.94 6.6,-3.07 1.91,-0.1 7.63,-0.48 7.36,1.96 0.01,0.99 -0.06,0.65 -0.52,1.36l3.89 -0.01c1.94,-0.38 7.22,-0.11 9.51,-0.11 2.44,0 6.94,0.26 9.14,-0.06 0.72,-2.16 -0.33,-3.03 -1.09,-4.17 -7.86,-7.1 -54.76,-4.92 -58.06,4.47 -0.88,2.5 3.47,4.15 5.05,4.78z"/>
   <path fill="#107849" d="M984.86 168.24l11.82 3.36c3.05,0.83 7.03,1.87 9.91,3.29 0.25,0.12 0.48,0.23 0.66,0.38 0.49,0.38 0.21,0.14 0.42,0.46 0.03,0.03 0.09,0.07 0.1,0.09 3.03,2.42 -0.53,4.09 -2.7,4.68 -2.16,0.59 -6.93,1.15 -9.29,0.58 -1.15,0.39 -4.09,-0.95 -3.33,-2.78 0.94,-1.51 1.04,-0.79 1.13,-1.74l-23.41 0c-1.89,4.55 0.21,6.6 4.41,7.96 0.36,0.02 5.47,1.14 7.96,1.4 2.89,0.3 5.89,0.45 8.82,0.51 9.05,0.16 32.67,-0.67 39.29,-7.19 0.62,-0.61 1.58,-1.75 1.42,-3.15 -0.17,-1.57 -1.31,-2.07 -1.91,-2.92 -2.04,-1.57 -5.61,-2.79 -8.16,-3.62 -0.83,-0.27 -1.96,-0.52 -2.89,-0.79l-12.08 -3.21c-1.28,-0.21 -3.76,-1.25 -3.66,-2.65 0.22,-2.99 10.37,-3.28 12.84,-2.17 0.45,0.2 1.41,0.81 1.16,1.4 -0.08,1.21 -0.05,0.43 -0.5,1.41l3.8 -0c1.66,-0.39 7.41,-0.14 9.5,-0.14 2.94,0 6.27,0.15 9.16,-0.03 0.65,-1.92 -0.23,-3.19 -1.08,-4.21 -6.12,-6.45 -52.26,-5.54 -57.82,3.94 -1.65,2.81 2.72,4.37 4.41,5.14z"/>
   <path fill="#107849" d="M756.8 168.66c0.46,-0.27 0.91,-0.05 1.53,0.16l4.31 1.26c1.95,0.53 3.85,1.14 5.77,1.66 2.96,0.81 9.27,2.34 10.88,4.19 2.54,2.22 -0.94,4.07 -3.09,4.63 -2.07,0.53 -6.92,1.06 -9.15,0.52 -1.17,0.39 -4.02,-0.95 -3.32,-2.78 0.94,-1.32 1.05,-0.96 1.12,-1.73l-23.41 0c-0.81,1.98 -1.17,3.79 0.13,5.5 0.67,0.88 3.12,2.08 4.28,2.45 0.47,0.02 5.37,1.13 7.96,1.4 11.08,1.15 40.55,0.72 48.12,-6.67 3.32,-3.24 0.03,-5.38 -0.5,-6.08 -3.63,-2.76 -14.73,-5.54 -20.04,-6.77 -0.95,-0.22 -2.04,-0.49 -2.94,-0.87 -1.45,-0.06 -3.75,-1.31 -3.79,-2.46 -0.05,-1.46 2.27,-2.24 3.81,-2.53 2.13,-0.41 10.55,-1.2 10.12,1.63 0.05,1.18 0.03,0.36 -0.44,1.38l3.8 0c1.63,-0.39 7.43,-0.14 9.5,-0.14 2.99,0 6.21,0.11 9.17,-0.02 0.61,-1.82 -0.22,-3.27 -1.08,-4.21 -4.7,-4.87 -27.4,-4.37 -35.99,-3.52 -5.67,0.56 -11.77,1.64 -16.53,3.68 -1.95,0.84 -5.25,2.63 -5.59,4.6 -0.27,1.58 1.22,2.56 2.1,3.1l2.53 1.21c0.39,0.2 0.25,0.23 0.75,0.43z"/>
   <path fill="#107849" d="M850.61 168.2c-1.02,0.57 -3.32,0.39 -4.79,0.33 0.4,-1.08 4.11,-6.63 5,-8.09 2.63,-0.06 5.58,0.02 8.2,0.2 2.25,0.15 5.82,0.08 6.16,2.09 -0.32,2.62 -3.09,4.08 -5.47,4.71 -1.59,0.42 -2.9,0.48 -4.55,0.65 -0.73,0.08 -1.66,0.09 -2.49,0.17 -0.57,0.06 -0.88,0.22 -1.63,0.09 -0.44,-0.07 -0.25,-0.03 -0.44,-0.15zm-33.19 17.37c0.06,-0.09 0.2,-0.15 0.33,-0.56l17.34 -0.01c0.67,-0.32 0.66,-0.7 1.02,-1.29l2.87 -4.56c0.54,-0.82 3.34,-5.66 3.96,-5.81 9.79,-0.02 19.1,0.11 28.63,-1.46 4.49,-0.74 16.73,-3.49 17.25,-9.22 0.16,-1.76 -0.66,-1.92 -1.14,-2.98 -0.23,-0.28 -1.83,-1.19 -2.35,-1.42 -6.12,-2.64 -16.6,-2.83 -23.18,-3.08 -4.87,-0.19 -10.16,0 -15.08,0l-15.47 0.02c-0.17,1.22 -1.57,3.02 -2.23,4.02 -1.87,2.88 -5.29,8.76 -7.01,11.15l-7.09 11.27c-0.67,0.99 -1.77,2.84 -2.35,3.4l3.6 0.04c1.12,0.21 0.49,-0.32 0.9,0.5z"/>
   <path fill="#292929" d="M247.8 133.12c0.73,3.23 5.42,4.94 8.28,5.76 12.11,3.47 51.63,3.95 65.58,3.95 3.14,0 24.29,-0.12 27.13,-0.45l13.54 -0.55c4.06,-0.06 8.84,-0.69 12.81,-1 6.6,-0.51 17.69,-2.06 23.95,-3.98 1.93,-0.59 3.29,-1.08 5.04,-1.95 8.58,-4.28 11.76,-7.07 18.09,-13.29 0.28,-0.27 0.57,-0.54 0.8,-0.85 0.38,-0.52 0.23,-0.43 0.69,-0.97 1.17,-1.38 1.97,-2.22 3.07,-3.95 0.67,-1.06 2.28,-3.12 2.48,-4.42l-7.44 0.03c-0.56,0.52 -0.97,0.36 -1.75,0.18 -0.53,1.18 -1.94,2.56 -2.79,3.6 -0.98,1.2 -2.06,2.21 -3.15,3.26 -2.25,2.18 -4.09,3.73 -6.84,5.75 -5.43,3.99 -10.51,6.51 -17.24,8.15 -22.3,5.43 -72.07,5.73 -95.93,4.74 -7.5,-0.31 -41.22,-0.9 -46.06,-4.4 -0.35,0.23 -0.36,-0.36 -0.26,0.41z"/>
   <path fill="#292929" d="M895.1 134.04c1.34,3.57 4.18,4.81 8.06,5.99 9.06,2.77 28.65,3.31 38.27,3.46 1.68,0.02 5.09,0.04 6.73,0.24 2.23,0.27 4.61,-0.03 6.89,0.1 7.04,0.4 20.01,0.16 27.65,0.16l13.41 -0.34c13.4,-0.01 37.64,-1.85 50.27,-5.46 5.99,-1.71 9.08,-3.98 13.96,-7.1 0.7,-0.45 1.37,-1.05 1.98,-1.53 0.78,-0.61 1.16,-0.82 1.89,-1.42 3.75,-3.12 11,-10.67 12.54,-15.32l-8.98 0.06c-1.13,1.2 -1.75,2.3 -2.89,3.53 -7.51,8.11 -15.67,14.43 -27.17,17.21 -13.74,3.32 -31.28,4.25 -46.11,4.7 -16.68,0.5 -73.82,1.01 -91.59,-2.97 -1.49,-0.34 -3.77,-1.2 -4.9,-1.31z"/>
   <path fill="#292929" d="M486.29 115.89c0.36,-6.28 11.41,-21.07 16.1,-26.64l3.63 -4.01c6.32,-6.26 11.17,-8.95 21.47,-8.92 13.29,0.04 26.47,-0.33 39.85,-0.33 6.73,0 13.54,0.17 20.03,0.17 4.47,0 10.17,0.05 14.66,0.45 1.17,0.11 3.95,0.42 4.81,0.29 0.81,-1.13 0.34,-3.54 -0.29,-4.44 -0.86,-1.21 -2.15,-1.5 -4.08,-1.7 -7.59,-0.78 -25.58,-0.78 -33.47,-0.84 -15.2,-0.12 -30.43,-0.08 -45.63,0.06 -8.63,0.08 -11.19,0.55 -16.96,5.73 -4.67,4.19 -28.65,29.83 -23.59,37.7 0.65,1.01 1.98,2.06 3.49,2.48z"/>
   <path fill="#292929" d="M286.39 116.89c0,-4.79 3.79,-11.03 6.02,-14.23 3.5,-5.02 10.04,-14.08 14.26,-18.36l4.04 -3.4c3.91,-3.12 8.9,-4.92 15.08,-4.9 3.44,0.01 6.62,-0.17 9.91,-0.17 3.09,0 6.91,0.2 9.91,-0.02 6.29,-0.46 13.59,-0.15 20.03,-0.15 6.68,0 13.35,0 20.03,0 6.61,-0.01 13.07,0.44 19.39,0.69 0.24,-0.18 0.83,0.23 -0.28,-2.16 -1.31,-2.82 -2.51,-2.83 -5.52,-3.11 -9.4,-0.89 -24.13,-0.79 -33.61,-0.79 -15.17,-0 -30.35,0.12 -45.51,0.39 -7.8,0.14 -12.47,2.35 -16.83,6.11 -4.06,3.51 -7.2,7.46 -10.71,12.2 -3.6,4.86 -12,15.43 -12.03,22.26 -0.01,3.46 2.44,5.51 5.84,5.63z"/>
   <path fill="#292929" d="M933.95 117.25c0.63,-2.92 0.8,-4.37 2.4,-7.34 1.17,-2.18 2.41,-4.31 3.72,-6.19l6.27 -8.61c0.66,-1.01 1.38,-1.86 2.14,-2.81 0.45,-0.56 0.6,-0.87 1.05,-1.43 0.47,-0.58 0.64,-0.74 1.14,-1.33 0.77,-0.9 1.61,-1.73 2.36,-2.6 1.33,-1.55 3.38,-3.42 5.14,-4.76 4.5,-3.44 9.14,-4.86 15.04,-4.86 6.35,0 13.08,-0.34 19.41,-0.34 6.51,0 13.36,0.09 19.61,-0.17 2.54,-0.11 7.37,-0.19 9.77,0.1l19.54 0.23c1.64,0 8.56,0.53 9.49,0.24l1.93 0c-1.16,-3.87 -1.83,-4.63 -6.21,-5.03 -3.54,-0.33 -7.21,-0.45 -10.78,-0.54 -7.57,-0.17 -15.13,-0.26 -22.71,-0.26 -15.14,-0.02 -30.3,0.17 -45.42,0.41 -7.75,0.12 -12.59,2.2 -16.93,6.04 -0.55,0.49 -0.92,0.77 -1.45,1.23l-4.21 4.46c-3.75,4.31 -11.94,15.37 -14.34,20.14 -1.18,2.35 -2.76,5.36 -2.84,8.46 -0.1,3.91 2.16,5.11 5.49,5.89 0.01,-0.04 0.02,-0.14 0.02,-0.12l0.36 -0.84z"/>
   <path fill="#292929" d="M816.06 136.24c-0.52,0.81 -0.91,1.5 -1.42,2.24 -0.59,0.86 -1.1,1.31 -1.42,2.33 8.66,1.17 22.96,-0.37 30.81,-2.87 5.56,-1.77 10.09,-4.16 13.51,-7.96 1.21,-1.33 1.13,-1.52 1.88,-2.46 4.19,-5.29 6.73,-9.67 10.53,-15.07l11.66 -18.49c0.52,-0.91 1.06,-1.73 1.57,-2.55 0.8,-1.3 5.88,-9.45 6.37,-10.73 -0.05,-0.57 0.44,-0.27 -0.73,-0.38l-7.88 -0.03c-0.92,1.09 -2.12,3.4 -2.93,4.73 -5.98,9.84 -14.38,23.47 -20.7,32.15 -4.75,6.53 -7.15,10.88 -15.86,14.29 -3.83,1.5 -7.51,2.46 -11.9,3.19 -2.22,0.36 -4.51,0.62 -6.8,0.81 -2.3,0.19 -5.7,-0.01 -6.69,0.8z"/>
   <path fill="#F2683A" d="M861.76 66.23c0.79,-0.61 5.94,-0.19 6.99,-0.16 3.16,0.08 20.76,0.59 21.26,0.38 0.63,-0.26 6.1,-9.66 7.23,-11.12 0.56,-0.72 -0.01,-0.24 0.78,-0.71 0.47,-1.51 2.96,-4.41 3.01,-5.24l-36.6 0.21c-0.96,1.52 -2.05,2.73 -3.05,4.13 -2.47,3.45 -6.8,8.95 -8.86,12.04l9.1 0.39c0.03,-0.05 0.11,0.05 0.15,0.08z"/>
   <path fill="#292929" d="M410.58 79.51c-0.02,0.59 0.9,2.48 0.96,5.16l37.6 0c0.26,-0.77 1.1,-2.21 1.56,-3.14 3.65,-7.35 6.19,-18.24 -3.02,-22.14 -0.48,0.47 -0.19,-0.15 -0.19,0.59 0,0 0.17,0.62 0.17,0.62 1.92,6.22 -1.6,13.51 -4.37,18.65 -3.53,0.06 -32.02,-0.14 -32.7,0.25z"/>
   <path fill="#292929" d="M1058.12 80.92c0.16,0.8 0.43,1.45 0.62,2.39 0.18,0.91 0.19,1.72 0.35,2.76l37.52 -0.27c2.01,-2.77 4.63,-9.36 4.84,-13.55 0.27,-5.42 -1.27,-9.45 -6.33,-11.6l-0.17 0.39c-0.01,0.17 0.05,0.41 0.1,0.58 1.53,5.01 -0.06,10.16 -2.1,14.76 -0.29,0.65 -1.71,4 -2.48,4.19l-30.56 0.13c-1.26,-0.01 -1.34,-0.12 -1.79,0.23z"/>
   <path fill="#292929" d="M861.76 66.23c-0.46,0.54 -3.36,4.14 -3.34,4.87l37.52 0.66c0.2,-0.28 10.62,-16.18 10.91,-17.16l-8.83 0.02c-0.79,0.47 -0.22,-0.02 -0.78,0.71 -1.13,1.46 -6.6,10.85 -7.23,11.12 -0.5,0.21 -18.1,-0.31 -21.26,-0.38 -1.05,-0.03 -6.2,-0.45 -6.99,0.16z"/>
   <path fill="#292929" d="M671.71 68.46c-0.56,1.32 -1.95,3.38 -2.52,4.76 1.9,0.67 10.4,0.26 13.14,0.26 5.32,0 37.78,0.26 40.12,-0.09 0.61,-0.26 1.28,-1.72 1.73,-2.45 0.51,-0.83 1.3,-1.91 1.59,-2.72 -4.77,-0.33 -21.12,-0.07 -27.14,-0.08l-20.44 -0.05c-1.34,-0 -5.4,-0.38 -6.48,0.36z"/>
   <path fill="#292929" d="M817.42 185.58c-0.36,0.29 -0.96,1.06 -1.06,1.36l22.45 -0.02 3.68 -5.91c0.43,-0.61 0.57,-0.9 0.95,-1.53 0.4,-0.68 2.55,-4.14 3.01,-4.24 2.67,-0.6 31.67,1.87 43.14,-6.59 4.49,-3.31 3.34,-7.29 -1.91,-8.97 0.48,1.06 1.3,1.22 1.14,2.98 -0.52,5.73 -12.76,8.47 -17.25,9.22 -9.53,1.57 -18.84,1.44 -28.63,1.46 -0.61,0.14 -3.42,4.98 -3.96,5.81l-2.87 4.56c-0.36,0.59 -0.35,0.97 -1.02,1.29l-17.34 0.01c-0.13,0.41 -0.27,0.47 -0.33,0.56z"/>
   <path fill="#292929" d="M893.49 185.19c-1.06,1.62 -1.15,0.73 -1.13,1.74 18.03,0 35.56,0.61 51.55,-2.56 3.76,-0.75 7.14,-1.85 10.51,-3.12 11.36,-4.29 20.2,-16.37 7.84,-20.72 0.31,0.45 0.05,0.1 0.43,0.48l1.06 1.21c3.34,4.85 -2.53,10.9 -6.02,13.45 -4.58,3.33 -11.09,5.53 -17.64,6.88 -7.19,1.48 -14.64,2.04 -22.2,2.35 -3.96,0.16 -22.62,-0.3 -24.39,0.29z"/>
   <path fill="#4D4C4C" d="M870.4 37.97c0.33,-0.63 0.65,-1.11 1.01,-1.69 0.38,-0.63 0.53,-0.98 0.87,-1.59 3.61,-6.37 5.94,-5.78 5.94,-4.56 0,1.18 -5.84,10.21 -5.92,11.28 3.44,0 2.99,0.7 4.88,-3.07 1.33,-2.64 4.89,-7.79 4.89,-10.08 0,-2.87 -3.65,-2 -5.11,-0.88 -1,0.76 -1.04,1.13 -1.9,1.54 -0.02,-1.52 -0.09,-2.56 -1.76,-2.56 -3.32,0 -3.29,1.63 -4.43,1.83 0.41,-0.55 0.55,-0.82 0.83,-1.66l-3.34 0c-0.49,1.29 -1.26,2.49 -1.98,3.75l-4.09 7.46c-0.49,0.83 -1.68,2.79 -1.91,3.64l3.16 0c2.43,-3.52 5.35,-12.01 9.08,-12.01 2.49,0 -4.53,9.46 -5.22,12.01l3.08 0.01c0.69,-1.08 1.33,-2.26 1.94,-3.43z"/>
   <path fill="#4D4C4C" d="M998.39 41.38c1.32,-2.08 2.53,-4.27 3.63,-6.37 0.88,-1.68 2.78,-4.91 4.62,-5.51 4.72,-1.55 -3.95,9.39 -4.41,11.9l3.18 -0.01 5.62 -9.97c0.33,-0.58 0.95,-2.15 1.01,-2.96 0.12,-1.6 -0.49,-2.06 -1.87,-2.1 -2.53,-0.07 -3.95,1.52 -5.1,2.67 -0.2,-2.16 0.05,-2.78 -2.56,-2.66 -1.75,0.08 -2.38,1.05 -3.47,1.66 0.16,-0.75 0.3,-0.79 0.64,-1.48l-3.15 0.01c-0.86,1.19 -1.46,2.49 -2.13,3.72 -0.84,1.57 -5.91,10.21 -6.03,11.13l3.08 -0.05c0.8,-0.33 6.71,-14.6 9.51,-11.74 0.18,0.19 0.33,-0.11 0.2,0.81 -0.09,0.63 -2.45,4.6 -2.8,5.23 -0.55,0.99 -1.1,1.91 -1.63,2.92l-1.52 2.8 3.18 -0.01z"/>
   <path fill="#4D4C4C" d="M738.68 38.56c-2.33,0 0.45,-4.62 0.95,-5.42 0.99,-1.59 2.43,-4.12 4.43,-4.06 3.48,0.11 -1.08,6.73 -2.36,7.98 -0.74,0.72 -1.8,1.5 -3.02,1.5zm-3.72 8.69c5.25,0 7.76,-5.31 9.78,-8.79l4.97 -8.87c0.63,-1.05 1.27,-1.94 1.68,-3.06l-3.27 0.04c-0.26,0.86 -0.66,1.29 -1.02,2.06 -0.71,-1.01 -0.03,-1.92 -1.83,-2.23 -4.51,-0.77 -7.38,3.9 -9.36,7.16 -0.59,0.97 -0.84,1.53 -1.34,2.78 -0.7,1.74 -1.47,5.24 1.63,5.24 2.66,0 2.97,-1.35 4.33,-1.83 -0.46,1.45 -2.6,4.93 -4.94,4.83 -1.23,-0.06 -1.21,-0.61 -1.26,-1.8l-3.44 0.62c-0.17,2.93 0.15,3.87 4.08,3.87z"/>
   <path fill="#292929" d="M745.85 184.53c0.14,0.14 0.14,0.15 0.36,0.32 0.25,0.18 0.15,0.11 0.38,0.25 0.13,0.08 0.58,0.31 0.81,0.43 0.51,0.25 1.12,0.53 1.74,0.75 1.08,0.39 2.75,0.77 3.99,0.98l8.72 1.01 14.46 0c0.34,-0.2 4.96,-0.43 5.92,-0.5 6.09,-0.47 21.07,-2.7 24.15,-7.77 2.15,-3.55 -2.75,-6.11 -4.95,-6.82 0.53,0.71 3.82,2.84 0.5,6.08 -7.57,7.4 -37.05,7.83 -48.12,6.67 -2.59,-0.27 -7.49,-1.38 -7.96,-1.4z"/>
   <path fill="#292929" d="M974.59 184.53c2.09,2.09 8.82,3.05 11.62,3.33 1.13,0.11 3.64,0.07 4.39,0.41l14.46 0c0.45,-0.26 26.03,-1.11 30.02,-8.31 1.91,-3.45 -2.38,-5.96 -4.91,-6.78 0.6,0.85 1.73,1.35 1.91,2.92 0.16,1.4 -0.8,2.54 -1.42,3.15 -6.62,6.53 -30.24,7.35 -39.29,7.19 -2.93,-0.05 -5.93,-0.2 -8.82,-0.51 -2.49,-0.26 -7.6,-1.38 -7.96,-1.4z"/>
   <path fill="#292929" d="M669.66 184.55l1.52 1.03c1.66,0.8 3.88,1.33 5.76,1.69 0.81,0.16 8.56,0.98 8.6,1l14.43 0c0.27,-0.16 5.18,-0.42 6.09,-0.5 5.29,-0.49 11.27,-1.45 16.13,-2.99 6.33,-2 12.71,-6.43 4.92,-10.74 -0.67,-0.37 -1.46,-0.64 -1.97,-1.04 0.26,1.04 3.97,2.74 0.65,6.09 -6.69,6.75 -30.1,7.5 -39.34,7.35 -4.2,-0.07 -8.86,-0.34 -12.98,-1.1 -1.27,-0.24 -2.55,-0.76 -3.81,-0.79z"/>
   <path fill="#4D4C4C" d="M785.45 29.59c0.15,2.68 -2.95,7.36 -4.52,8.5 -0.54,0.39 -2.68,1.55 -3.11,0.2 -0.42,-1.31 2.67,-7.04 4.55,-8.45 1.39,-1.04 1.78,-0.98 3.08,-0.25zm-2.23 11.81c0.83,-1.08 11.21,-20.16 11.28,-20.39l-3.22 0c-0.96,2.24 -3.14,5.2 -4.04,7.48l-0.51 -1.43c-0.3,-0.46 -0.67,-0.58 -1.17,-0.7 -4.27,-1.09 -8.03,4.49 -9.69,7.5 -1.09,1.98 -4.11,8.4 0.97,7.84 2.14,-0.24 2.33,-1.15 3.62,-1.55 -0.22,0.77 -0.29,0.49 -0.25,1.24l3 0z"/>
   <path fill="#4D4C4C" d="M620.49 29.19c4.64,-1.43 -0.99,6.74 -1.62,7.67 -0.48,0.7 -1.46,1.6 -2.46,1.91 -3.92,1.19 -0.56,-4.31 -0.16,-5.15 0.76,-1.59 2.52,-3.9 4.24,-4.43zm-0.93 12.21c0.8,0 0.68,-0.35 1,-0.99 1.94,-4.03 9.62,-16.74 10.7,-19.34l-2.82 -0.06c-1.11,0.23 -3.63,6.72 -4.7,7.45 -0.05,-2.51 -2.52,-2.6 -4.35,-1.84 -4.64,1.92 -8.68,9.98 -8.68,12.37 0,1.81 0.76,3 3.03,2.7 2.06,-0.28 2.35,-1.08 3.62,-1.68 -0.26,0.68 -0.42,0.7 -0.41,1.39l2.61 0z"/>
   <path fill="#4D4C4C" d="M556.77 29.21c4.59,-1.31 -0.9,8.66 -4.1,9.58 -3.62,1.03 -0.69,-3.94 -0.18,-4.92 0.95,-1.82 2.24,-4.07 4.28,-4.66zm-0.45 12.2c0.53,-0.76 1.04,-1.83 1.48,-2.65 0.46,-0.86 0.94,-1.63 1.41,-2.51l8.38 -15.23 -3.22 0 -4.04 7.47 -0.35 -0.95c-0.86,-2.37 -4.53,-1.03 -5.82,-0.05 -0.36,0.27 -0.97,0.67 -1.4,1.07 -1.97,1.79 -6.1,8.35 -5.7,11.25 0.19,1.39 1.26,2.09 2.89,1.91 1.73,-0.2 2.19,-0.84 3.33,-1.52l0.03 1.21 3 0z"/>
   <path fill="#4D4C4C" d="M496.63 38.68c-0.62,-1.72 1.73,-5.57 2.47,-6.6 2.39,-3.35 5.01,-4.05 5.01,-1.75 0,1.61 -3.7,9.75 -7.48,8.36zm5.4 2.72c1.1,-2.55 6.56,-11.89 8.32,-15.2 0.75,-1.4 2.29,-3.7 2.78,-5.19l-3.22 0.01c-0.3,0.87 -1.47,2.8 -1.94,3.61 -0.41,0.71 -1.52,3.14 -2.16,3.49 -0.35,-0.7 -0.34,-1.24 -1.01,-1.57 -1.71,-0.83 -4.09,0.14 -5.33,1.15 -2.89,2.35 -7.43,9.02 -6.73,12.36 0.83,3.97 6.52,-0.09 6.53,-0.09 -0.19,0.85 -0.39,0.7 -0.43,1.43l3.18 0z"/>
   <path fill="#4D4C4C" d="M439.61 37.55c0,6.28 9.2,5.2 13.84,-1.03 -0.4,-0.55 -1.19,-1.21 -1.65,-1.64 -1.5,0.57 -2.84,3.51 -6.27,3.51 -4.76,0 -0.49,-8.51 3.51,-11.79 1.06,-0.87 2.56,-1.41 4.13,-1.41 1.83,0 1.98,1.22 1.98,3.01 0.89,-0.09 1.53,-0.34 2.33,-0.55 1.46,-0.38 1.34,-0.26 1.34,-2.48 0,-3.02 -3.19,-3.74 -6.17,-3.21 -2.26,0.4 -4.85,1.92 -6.29,3.21 -2.21,1.99 -1.87,1.89 -3.26,3.77 -1.59,2.15 -3.5,5.81 -3.5,8.62z"/>
   <path fill="#4D4C4C" d="M964.33 41.74c2.3,0 4.3,-0.6 6.12,-1.79 0.66,-0.44 3.19,-2.67 3.64,-3.43 -0.39,-0.53 -1.2,-1.19 -1.65,-1.64 -1.54,0.53 -2.82,3.51 -6.26,3.51 -5.77,0 1.64,-13.2 7.02,-13.2 2.03,0 2.59,0.33 2.59,3.01 3.93,-0.43 3.86,-1.34 3.66,-3.26 -0.59,-5.59 -10.42,-3.13 -14.59,2.4 -1.57,2.09 -2.68,3.82 -3.66,6.26 -1.48,3.71 -1.46,8.13 3.13,8.13z"/>
   <path fill="#4D4C4C" d="M914.7 34.55c-0.27,1.4 -3.8,5.57 -5.2,3.96 -0.7,-0.81 0.63,-2.61 1.27,-3.11 0.98,-0.76 2.3,-0.85 3.92,-0.85zm-1.06 -3.67c0.71,-1.26 1.66,-2.36 3.5,-1.84 0.3,1.07 -0.52,2.91 -1.33,3.34 -2.84,0 -5.1,-0.06 -7.03,1.44 -4,3.13 -4.72,9.39 0.6,7.63 1.78,-0.59 2.15,-1.63 3.23,-2.15 -0.38,1.22 -0.22,2.27 1.34,2.27 1.28,0 2.9,0.27 3.09,-2.51l-1.07 0c0.05,-1.21 0.65,-1.98 1.19,-2.85 1.03,-1.65 3.66,-6.02 3.66,-7.75 0,-4.1 -8.78,-2.11 -10.09,1.86 0.57,0.38 2.1,0.46 2.91,0.55z"/>
   <path fill="#4D4C4C" d="M1066.89 34.55c-0.29,0.97 -1.18,2.15 -1.91,2.9 -2.28,2.33 -4.39,1.65 -3.07,-0.79 0.34,-0.62 0.54,-0.95 1.16,-1.34 1.23,-0.76 2.24,-0.77 3.82,-0.77zm-3.91 -4.01c0.94,0.01 2.25,0.53 2.83,0.09 0.74,-0.56 0.6,-1.17 1.94,-1.59 2.31,-0.74 1.83,1.18 1.04,2.51 -0.37,0.62 -0.31,0.64 -0.81,0.83 -1.2,0.22 -8.74,-0.99 -10.17,6.38 -0.29,1.51 0.36,2.98 2.12,2.98 2.38,0 3.42,-1.3 4.72,-2.29 0.03,1.29 -0.36,2.12 1.67,2.12 2.36,0 2.17,-0.53 3.02,-2.36l-1.2 -0.41c0.25,-1.19 1.94,-3.92 2.75,-5.34 0.73,-1.27 2.54,-3.92 2.06,-5.64 -0.97,-3.49 -9.73,-0.72 -9.98,2.73z"/>
   <path fill="#4D4C4C" d="M763.16 34.55c0,0.58 -1.35,2.48 -1.82,2.95 -0.53,0.52 -2.51,1.97 -3.36,1 -0.41,-0.47 -0.39,-3.94 5.18,-3.94zm-1.16 -3.67c0.51,-0.54 1.83,-2.47 3.24,-1.93 1.4,0.54 -0.28,3.12 -0.96,3.44 -2.9,0 -5.11,0.01 -7.01,1.46 -4.02,3.06 -4.63,9.1 0.26,7.71 1.94,-0.55 2.25,-1.58 3.52,-2.19 -0.26,1.29 0,2.2 1.38,2.2 1.89,0 2.34,0.29 3.26,-2.51 -0.84,-0 -0.63,0.13 -1.22,-0.27 0.1,-1 2.18,-4.3 2.76,-5.32 0.66,-1.16 2.5,-3.89 1.99,-5.79 -0.8,-2.93 -9.16,-1.17 -9.96,2.79l2.73 0.4z"/>
   <path fill="#4D4C4C" d="M1092.84 34.57c-0.06,1.36 -3.76,5.55 -5.19,3.96 -0.47,-0.53 -0.18,-4.12 5.19,-3.96zm-1.17 -3.69c0.44,-0.53 1.89,-2.45 3.26,-1.92 1.29,0.51 -0.22,2.6 -0.66,3.42 -4.57,0 -7.93,0.21 -9.97,4.77 -0.79,1.75 -1.17,4.41 1.43,4.59 2.51,0.17 3.46,-1.5 4.98,-2.39 -0.57,2.96 2.98,2.83 3.85,1.47 0.1,-0.16 0.2,-0.39 0.28,-0.55 0.2,-0.41 0.37,-0.74 0.52,-1.06 -0.52,-0.26 -0.61,0.01 -1.23,-0.41 0.27,-2.33 5.46,-7.91 4.76,-11.1 -0.68,-3.11 -9.28,-0.91 -9.98,2.76l2.76 0.43z"/>
   <path fill="#4D4C4C" d="M599.89 34.55c-0.25,1.39 -3.55,5.34 -4.97,4.11 -1,-0.87 0.31,-2.64 1.07,-3.2 1.22,-0.89 2.17,-0.91 3.89,-0.91zm-1.18 -3.7c1.25,-1.18 1.51,-2.54 3.71,-1.75 0.25,1.53 -0.57,2.24 -1.06,3.24 -3.26,0.21 -4.89,-0.19 -7.27,1.43 -3.89,2.65 -4.94,9.38 0.3,7.75 1.95,-0.61 2.23,-1.34 3.44,-2.28l-0.17 1.21c0,1.1 3.57,2.75 4.75,-1.38 -0.78,-0 -0.65,0.15 -1.2,-0.27 0.03,-1.01 1.91,-3.81 2.51,-4.89 0.55,-1 2.3,-3.79 2.3,-5.22 0,-4.73 -9.58,-1.9 -10.02,1.81l2.7 0.37z"/>
   <path fill="#4D4C4C" d="M796.59 34.56c-0.04,1.18 -3.71,5.6 -5.19,3.95 -0.74,-0.83 0.7,-2.67 1.29,-3.11 1.06,-0.78 2.27,-0.88 3.9,-0.84zm-1.17 -3.69c0.44,-0.52 1.89,-2.45 3.25,-1.92 1.3,0.5 -0.21,2.61 -0.66,3.42 -4.37,0 -8.16,0.34 -9.99,4.76 -0.73,1.77 -1.16,4.41 1.45,4.6 2.72,0.19 4.02,-1.95 4.96,-2.41l0.03 1.68c1,0.61 2.02,0.9 3.45,0.3 0.41,-0.26 0.99,-1.65 1.2,-2.09 -0.65,-0.34 -0.46,0.1 -1.23,-0.42 0.28,-2.37 5.46,-7.92 4.76,-11.11 -0.68,-3.09 -9.25,-0.93 -9.98,2.76l2.76 0.43z"/>
   <path fill="#4D4C4C" d="M542.45 34.56c-0.03,0.7 -1.38,2.45 -1.83,2.91 -3.23,3.27 -5.04,0.1 -1.93,-2.14 0.97,-0.7 2.31,-0.8 3.76,-0.76zm-1.17 -3.69c0.44,-0.53 1.9,-2.45 3.25,-1.92 1.39,0.54 -0.41,2.96 -0.66,3.43 -5.7,0 -7.92,0.69 -9.93,4.81 -0.88,1.8 -1.11,4.35 1.39,4.55 2.83,0.23 3.76,-1.85 5.03,-2.41 -0.58,2.79 1.69,2.45 3.66,1.97l0.96 -2.09c-0.65,-0.34 -0.46,0.1 -1.23,-0.42 0.11,-0.98 2.13,-4.29 2.78,-5.32 1.05,-1.67 2.41,-3.86 1.98,-5.78 -0.46,-2.08 -6.97,-2.53 -9.98,2.57 0.48,0.38 2.02,0.56 2.76,0.62z"/>
   <path fill="#4D4C4C" d="M888.66 34.57c-0.03,1.4 -3.75,5.41 -5.06,4.05 -1.01,-1.04 0.8,-2.95 1.3,-3.3 0.94,-0.65 2.36,-0.8 3.76,-0.75zm-1.17 -3.69c0.51,-0.57 0.95,-1.31 1.8,-1.7 1.51,-0.69 2.6,-0.26 1.37,2.22 -0.44,0.88 -0.13,0.87 -1.05,0.99 -1.36,0.17 -2.39,-0.12 -3.9,0.21 -5.81,1.28 -7.64,8.13 -4.88,9 1.53,0.48 3.51,-0.35 4.6,-1.4 0.57,-0.56 0.4,-0.55 1.14,-0.88 -0.27,1.33 -0.05,2.25 1.38,2.25 2.36,0 2.4,-0.2 3.24,-2.37 -0.52,-0.26 -0.6,0.01 -1.23,-0.41 0.61,-3 4.8,-6.89 4.8,-10.53 0,-3.18 -7.39,-2.85 -10.02,2 0.49,0.37 2.02,0.55 2.76,0.61z"/>
   <path fill="#4D4C4C" d="M979.64 37.14c0,-1.46 2.82,-6.47 4.8,-7.55 0.82,-0.45 2.27,-0.93 2.92,0.03 0.89,1.31 -3.08,10.75 -7.55,8.98 -0.25,-0.64 -0.17,-0.57 -0.17,-1.46zm11.37 -6.4c0.67,-2.69 -0.18,-4.28 -2.92,-4.38 -6.37,-0.22 -11.08,6.45 -11.96,11 -1.17,6.05 5.5,4.71 8.68,2.49 2.97,-2.08 5.32,-5.57 6.2,-9.11z"/>
   <path fill="#4D4C4C" d="M923.33 38.31c-0.15,-2.39 1.31,-4.79 2.42,-6.31 0.58,-0.8 1.46,-1.83 2.22,-2.32 0.79,-0.51 2.66,-1.09 3.12,0.07 0.69,1.75 -4.02,11.47 -7.76,8.55zm11.38 -7.77c1.39,-5 -4.65,-5.34 -8.95,-2.24 -2.51,1.81 -1.41,1.04 -2.89,2.89 -0.29,0.36 -0.55,0.68 -0.8,1.06 -8.7,13.23 8.61,12.72 12.64,-1.71z"/>
   <path fill="#4D4C4C" d="M1101.44 37.14c0,-1.17 2.1,-4.73 2.72,-5.51 1.22,-1.56 3.9,-3.71 5.04,-2.06 0.98,1.42 -1.76,5.5 -2.68,6.9 -1.04,1.58 -5.07,4.38 -5.07,0.66zm11.53 -6.38l0 -2.75c-0.71,-0.73 -0.77,-1.28 -2.13,-1.55 -9.62,-1.93 -18.63,16.7 -8.65,15.23 2.38,-0.35 3.48,-1.2 4.98,-2.3 3.86,-2.8 4.83,-7.02 5.8,-8.63z"/>
   <path fill="#4D4C4C" d="M731.51 30.33c0,1.77 -2.03,5.11 -2.93,6.2 -2.7,3.25 -4.94,2.74 -5.06,1.21 -0.13,-1.65 2.7,-6.98 5.06,-8.23 0.89,-0.47 2.94,-0.95 2.94,0.82zm-1.09 -3.96c-1.4,0 -3.87,1.47 -4.7,2.16 -6.92,5.73 -8.63,16.31 1.11,12.46 3.37,-1.33 8.36,-7.67 8.36,-11.48 0,-3.4 -2.33,-3.14 -4.76,-3.14z"/>
   <path fill="#4D4C4C" d="M840.63 38.63c-0.79,-2.08 1.09,-4.79 2.2,-6.57 2.2,-3.54 5.48,-3.62 5.48,-1.94 0,2.2 -1.56,4.42 -2.74,6.13 -1.22,1.75 -2.33,3.08 -4.94,2.38zm11.21 -8.1c1.39,-5.23 -5.16,-5.1 -8.93,-2.31 -4.62,3.42 -9.56,13.27 -2.86,13.53 4.17,0.16 7.15,-2.9 9.37,-5.97 1.1,-1.52 1.88,-3.2 2.42,-5.24z"/>
   <path fill="#4D4C4C" d="M458.99 37.14c0,-1.47 2.86,-6.46 4.79,-7.55 0.92,-0.52 2.38,-0.87 2.94,-0.01 1.05,1.6 -3.07,9.31 -6.33,9.31 -1.65,0 -1.4,-0.8 -1.4,-1.76zm11.37 -6.4c0.68,-2.7 -0.18,-4.29 -2.94,-4.38 -2.57,-0.09 -4.28,0.62 -5.88,1.82 -2.34,1.74 -5.36,5.57 -6.07,9.19 -1.16,5.95 5.61,4.81 8.66,2.48 2.97,-2.27 1.43,-1.13 2.92,-2.84 1.5,-1.72 2.7,-3.87 3.3,-6.26z"/>
   <path fill="#4D4C4C" d="M473.19 37.35c0,-1.56 1.66,-4.02 2.33,-5.1 2.9,-4.65 8.35,-4.8 3.9,2.45 -1,1.64 -2.52,4.2 -4.79,4.2 -1.43,0 -1.44,-0.53 -1.44,-1.55zm0.41 4.39c3.18,0 6.65,-3.07 8.24,-5.44 8.43,-12.61 -3.34,-11.57 -7.84,-6.6 -2.41,2.66 -8.6,12.04 -0.4,12.04z"/>
   <path fill="#4D4C4C" d="M710.48 30.53c-0.21,2.04 -1.94,4.8 -2.93,6.03 -2.76,3.42 -5.18,2.86 -4.94,0.62 0.2,-1.81 2.06,-4.76 3,-5.88 2.61,-3.11 5.07,-2.72 4.87,-0.77zm-1.6 -4c-3.99,0.99 -6.29,3.55 -8.27,7 -2.02,3.52 -3.19,9.45 3.43,8.01 2.08,-0.45 5.12,-2.41 5.91,-3.62 0.38,-0.57 0.38,-0.52 0.83,-1.03 1.62,-1.84 3.62,-5.57 3.36,-8.23 -0.22,-2.29 -2.89,-2.73 -5.26,-2.14z"/>
   <path fill="#4D4C4C" d="M565.26 37.35c0,-1.35 1.89,-4.5 2.66,-5.6 0.47,-0.68 1.43,-1.71 2.06,-2.07 0.78,-0.44 2.2,-1.01 2.96,-0.22 1.1,1.13 -1.12,4.79 -1.74,5.76 -1.38,2.15 -2.81,4.41 -5.75,3.41l-0.18 -1.29zm0.42 4.39c4.76,0 9.03,-5.73 10.61,-9.67 2.95,-7.32 -5.35,-7.17 -9.85,-2.64 -3.03,3.04 -8.57,12.31 -0.76,12.31z"/>
   <path fill="#4D4C4C" d="M1025.85 41.4c0.79,-0.13 3.99,-6.56 4.4,-7.31 3.12,-5.62 7.77,-5.98 5.83,-2.63l-2.38 4.24c-0.57,0.97 -1.1,2.06 -1.6,2.93 -0.44,0.76 -1.35,2.05 -1.43,2.77l3.18 0c0.88,-1.72 1.8,-3.17 2.71,-4.91 0.86,-1.65 1.65,-2.87 2.64,-4.78 0.53,-1.02 0.84,-1.42 1.12,-2.6 0.81,-3.46 -2.8,-3 -4.09,-2.46 -1.03,0.44 -1.64,0.99 -2.46,1.37l0.5 -1.48 -3.18 -0.02 -7.16 13.01c-0.38,0.65 -0.71,1.09 -0.94,1.86l2.85 0z"/>
   <path fill="#4D4C4C" d="M896.54 41.85c-0.49,0.65 -1.17,1.14 -1.45,1.9 1.18,0 2.12,0.13 1.08,1.2 -0.68,0.71 -1.48,0.41 -2.66,0.52 -0.35,0.52 -0.83,1.14 -0.93,1.69 3.01,0.47 6.35,-0.9 6.35,-3.82 0,-0.74 -0.38,-0.63 -0.89,-0.95 0.95,-1.74 3.22,-0.49 6.57,-5.4 -0.59,-0.57 -1.86,-0.7 -2.91,-0.92 -1.57,3.54 -7.6,5.07 -2.52,-2.96 1.04,-1.65 2.6,-4.47 5,-3.94 0.85,1.33 0.31,1.17 0.15,2.54l3.45 -0.36c0.19,-1.25 1.24,-4.28 -1.67,-4.95 -1.25,-0.28 -2.61,-0.09 -3.83,0.33 -4.89,1.68 -9.86,10.29 -8.47,13.43 0.59,1.33 1.52,1.22 2.73,1.7z"/>
   <path fill="#4D4C4C" d="M664.73 32.19c0.79,-1.88 2.67,-3.58 4.86,-3.15 0.49,1.74 0.08,1.56 -0.41,3.17l-4.45 -0.02zm5.82 2.7c0.84,-0.42 5.13,-7.94 -0.3,-8.62 -6.71,-0.83 -14.15,11.95 -10.63,14.77 3,2.4 8.57,-1.2 9.22,-3.28 -0.61,-0.47 -1.71,-0.95 -2.43,-0.97 -1.41,2.36 -6.26,4.1 -3.26,-1.9l7.39 -0.01z"/>
   <path fill="#4D4C4C" d="M693.44 28.3c0.39,-0.7 0.51,-0.91 0.64,-1.77l-3.1 0.07c-0.7,1.21 -1.28,2.46 -2.05,3.73 -0.82,1.35 -5.93,10.23 -5.95,11.07l3 0 4.13 -7.22c3.07,-5.46 6.78,-5.9 6.23,-3.51l-5.88 10.72 3.19 0.01c0.47,-0.67 1.01,-1.69 1.4,-2.47 1.62,-3.27 7.81,-11.73 3.96,-12.51 -2.91,-0.6 -4.09,1.03 -5.58,1.88z"/>
   <path fill="#4D4C4C" d="M1074.69 41.89l-1.45 1.76c0.84,0.17 0.77,-0 1.48,0.35 -0.14,1.6 -1.48,1.39 -3.01,1.43 -0.39,0.62 -0.82,0.95 -0.85,1.82 2.59,0.03 5.63,-0.45 6.25,-3.46 0.27,-1.28 -0.5,-0.89 -0.77,-1.63 0.74,-1.31 1.31,-0.22 3.62,-2.12 0.88,-0.73 2.19,-2 2.75,-3.11l-1.21 -0.48c-0.5,-0.12 -0.87,-0.14 -1.21,-0.39 -1.15,0.54 -1.8,2.65 -3.66,2.82 -3.9,0.36 2.26,-8.28 2.99,-8.88 0.92,-0.75 3.29,-1.83 3.18,0.3 -0.04,0.71 -0.22,0.54 -0.15,1.41 3.27,-0.62 3.6,0.76 3.6,-3.24 0,-2.67 -5.94,-4.02 -10.89,2.23 -1.49,1.89 -4.44,6.73 -3.38,9.45 0.57,1.46 1.57,1.03 2.71,1.74z"/>
   <path fill="#4D4C4C" d="M521.5 41.38c1.83,-2.72 4.45,-8.73 6.61,-10.64 0.79,-0.7 2.47,-2 3.73,-1.04 0.35,0.82 -0.69,2.38 -1.08,3.07 -0.61,1.06 -4.65,7.83 -4.67,8.63l3 0c0.55,-0.65 1.01,-1.67 1.47,-2.44 0.48,-0.81 0.88,-1.55 1.34,-2.37 1.3,-2.33 5.84,-8.98 2.93,-10.09 -2.51,-0.95 -4.82,1.23 -5.74,1.58l0.59 -1.54c-3.84,0 -2.75,-0.66 -5.17,3.69l-4.2 7.56c-0.64,1.18 -1.51,2.44 -1.95,3.6l3.16 0z"/>
   <path fill="#4D4C4C" d="M513.18 32.2c0.57,-1.1 1.97,-2.84 3.29,-3.21 2.84,-0.79 1.83,2.66 0.9,3.23l-4.19 -0.02zm6.29 2.69c0.35,-1.33 2.01,-3.5 2.01,-5.8 0,-4.65 -8.16,-3.78 -12.27,3.82 -1.48,2.74 -1.94,3.69 -1.94,6.5 0,2.4 3.42,2.64 5.66,1.97 1.87,-0.55 3.81,-2.27 4.46,-3.7l-2.3 -0.93c-1.22,1.03 -2.44,3.22 -4.48,1.57 0,-1.31 0.49,-2.43 1,-3.43l7.85 -0z"/>
   <path fill="#4D4C4C" d="M946.11 32.2c0.47,-1.2 2.04,-2.9 3.26,-3.23 2.84,-0.79 1.48,2.17 1.2,3.25l-4.45 -0.02zm5.84 2.69c0.85,-0.45 4.41,-7.25 0.56,-8.44 -0.94,-0.29 -2.08,-0.21 -2.99,-0.02 -5.04,1.08 -9.48,8.91 -9.48,11.74 0,3.31 2.16,4.17 5.29,3.31 1.95,-0.53 4.39,-2.25 4.8,-3.73 -0.74,-0.56 -1.47,-0.91 -2.31,-0.99 -0.99,1.05 -2.35,3.03 -4.25,1.73 -0.18,-1.08 0.28,-3.17 1.15,-3.62l7.23 0z"/>
   <path fill="#4D4C4C" d="M823.91 26.54l-3.1 0.04 -6.18 11.15c-0.41,0.74 -1.85,2.97 -1.81,3.68l3 -0c2.09,-3.23 3.98,-7.98 6.59,-10.55 1.34,-1.32 5.92,-3.56 2.62,2 -0.57,0.96 -1.14,2 -1.61,2.92 -0.59,1.14 -2.82,4.74 -3.11,5.63l3.18 0c1.89,-3.15 3.57,-6.61 5.46,-9.79 3.21,-5.4 -0.66,-6.03 -3.37,-4.82 -1.22,0.54 -1.41,0.97 -2.31,1.47l0.65 -1.73z"/>
   <path fill="#4D4C4C" d="M631.31 32.18c0.72,-1.55 2.48,-3.65 4.86,-3.14 0.29,0.96 0.31,2.52 -0.72,3.18l-4.15 -0.04zm6.18 2.64c1.19,-2.44 4.38,-8.15 -0.84,-8.56 -6.92,-0.54 -13.98,12.3 -10.32,14.85 1.48,1.03 4.08,0.65 5.57,-0.09 1.27,-0.63 3.22,-2.13 3.54,-3.26 -0.59,-0.46 -1.79,-0.94 -2.53,-1.04 -0.46,1.11 -2.15,2.84 -3.94,1.96 -0.48,-1.33 0.19,-3.33 1.13,-3.79l7.4 -0.07z"/>
   <path fill="#4D4C4C" d="M1024.61 26.54c-0.69,0.95 -1.39,2.28 -1.92,3.31 -0.55,1.07 -1.25,2.13 -1.77,3.18 -3.22,6.5 -8.4,7.2 -6.29,3.21 0.84,-1.59 5.13,-8.77 5.27,-9.72 -3.77,0.08 -2.79,-0.34 -4.42,2.52l-4.12 7.43c-0.9,1.52 -2.25,4.61 0.32,5.15 2.49,0.53 4.2,-1.12 5.51,-1.99l-0.75 1.75 3.08 -0.05c0.41,-0.57 0.73,-1.23 1.07,-1.83l2.98 -5.47c0.67,-1.18 3.82,-6.66 4.01,-7.52l-2.98 0.01z"/>
   <path fill="#292929" d="M918.53 179.74c1,-2.12 10.19,-15.75 10.82,-17.37 2.01,0 4.38,0.2 6.28,0.33 1.95,0.14 3.94,0.72 5.7,0.85 -1.93,-2.84 -11.37,-3.06 -15.5,-3 -0.85,2.04 -11.56,17.9 -12.07,19.43l4.76 -0.24z"/>
   <path fill="#4D4C4C" d="M663.69 25.31c0.65,-1.14 1.29,-1.99 1.75,-3.29l-13.06 0.07c-0.91,0.7 -1.55,2.15 -2.05,3.27l4.81 0c-0.39,1.23 -1.68,3.06 -2.29,4.2 -0.9,1.7 -6.31,10.93 -6.53,11.82l3.16 -0c0.81,-0.95 8.07,-13.84 9.13,-16l5.07 -0.07z"/>
   <path fill="#4D4C4C" d="M1045.8 38.38c0,3.79 3.15,3.89 6.06,2.88 1.34,-0.47 3.11,-1.73 3.9,-2.91 0.38,-0.57 0.53,-0.87 1.04,-1.39l-2.87 -0.83c-0.79,1.02 -2.35,3.38 -4.24,2.57 -1.76,-1.49 4.8,-11.96 6.91,-9.19 0.17,0.25 0.11,0 0.18,0.46 0.1,0.67 -0.1,1.02 -0.25,1.69 0.72,0.04 2.79,-0.14 3.42,-0.49 0.04,-0.04 2.13,-5.55 -3.79,-4.82 -5.96,0.74 -10.36,9.02 -10.36,12.04z"/>
   <path fill="#4D4C4C" d="M671.69 38.38l0 0.62c0,3.89 7.43,4.15 10.99,-2.23l-2.84 -0.68c-1.24,1.44 -1.97,2.81 -3.72,2.81 -3.22,0 4.04,-12.47 6.36,-9.37 0.21,0.28 0.09,-0.08 0.18,0.44 0.07,0.43 0.05,0.28 -0.01,0.69 -0.04,0.28 -0.19,0.78 -0.24,1.02l3.35 -0.35c2.22,-6.87 -5.38,-5.84 -8.69,-2.5 -1.67,1.68 -5.4,6.09 -5.4,9.56z"/>
   <path fill="#4D4C4C" d="M842.7 23.86c0.33,-0.51 1.12,-1.82 1.32,-2.41 -0.53,-0.4 -1.03,-0.45 -1.71,-0.44 -3.11,0.04 -4.62,1.82 -5.99,4.17 -0.92,1.6 -0.26,1.36 -2.56,1.36 -0.32,0.87 -1.16,1.96 -1.34,2.82l1.39 0.02c-0.34,1.41 -6.06,10.61 -6.5,12.03l3.18 0c1.05,-1.99 2.23,-4.13 3.4,-6.06l3.48 -5.95 2.32 -0.04c0.23,-0.93 1.07,-1.72 1.41,-2.82l-2.07 0c0.02,-0.5 0.09,-0.54 0.43,-1.1 0.29,-0.48 0.37,-0.56 0.74,-0.92 0.76,-0.75 1.16,-0.65 2.48,-0.65z"/>
   <path fill="#4D4C4C" d="M711.34 41.36c0.66,0.07 1.5,0.07 2.17,0.06 0.99,-0.02 1.04,0.05 1.44,-0.75 1.12,-2.18 10.56,-18.57 10.88,-19.64l-3.22 0.05c-1.78,3.49 -11.04,19.01 -11.27,20.28z"/>
   <path fill="#4D4C4C" d="M809.29 41.37c0.81,-1.37 10.39,-18.11 10.78,-19.34l-3.41 0 -8.18 14.7c-0.69,1.23 -2.28,3.7 -2.57,4.66l3.38 -0.02z"/>
   <path fill="#4D4C4C" d="M490.17 32.45c0.65,-1.04 2.42,-2.8 4.14,-2.83 1.91,-0.03 0.48,1.53 3.12,-3.19 -2.96,-0.35 -3.16,0.4 -5.06,1.91 0.29,-1.08 0.54,-0.68 0.71,-1.82l-2.75 0c-1.13,0.34 -8.55,14.78 -8.56,14.87l3.18 -0.08 5.23 -8.86z"/>
   <path fill="#4D4C4C" d="M583.99 28.94c0.13,-0.1 -0.14,0.27 0.17,-0.22l0.41 -0.75c0.35,-0.63 0.45,-0.72 0.64,-1.44l-2.8 0c-0.69,0.18 -8.46,14.34 -8.57,14.86l3.37 0.01 1.51 -2.8c0.26,-0.45 0.31,-0.5 0.53,-0.91 1.31,-2.51 3.49,-7.16 6.33,-7.93 1.02,-0.27 1.12,-0.08 2.25,0.01 0.26,-1.21 1.33,-2 1.57,-3.33 -3.26,-0.68 -4.57,2.06 -5.39,2.5z"/>
   <path fill="#4D4C4C" d="M860.34 26.53l-2.95 0c-0.04,0.04 -0.09,0.09 -0.11,0.12l-6.37 11.02c-0.42,0.72 -1.85,3.09 -1.87,3.73l3.18 -0.09c0.35,-0.15 3.64,-6.45 4.13,-7.28 0.63,-1.05 1.64,-2.57 2.51,-3.26 1.34,-1.07 2.35,-1.39 3.93,-0.89 0.51,-1.1 1.49,-2.37 1.73,-3.39 -3.15,-0.84 -3.61,1.48 -5.27,2.29l1.09 -2.24z"/>
   <path fill="#292929" d="M1020.69 163.54c0.54,0.92 -0.08,1.01 -0.45,1.84 3.97,0 20.06,0.17 22.73,-0.03 0.12,-2.02 0.28,-2.94 -1.08,-4.27 -0.83,-0.82 -2.28,-1.65 -3.62,-1.91 0.86,1.02 1.73,2.29 1.08,4.21 -2.89,0.17 -6.23,0.03 -9.16,0.03 -2.09,0 -7.83,-0.26 -9.5,0.14z"/>
   <path fill="#292929" d="M850.61 168.2c0.55,-0.76 1.34,-2 1.82,-2.86 0.55,-0.99 1.21,-1.86 1.79,-2.95 3.79,-0.12 7.38,0.14 10.96,0.34 -0.34,-2.01 -3.92,-1.94 -6.16,-2.09 -2.62,-0.17 -5.57,-0.25 -8.2,-0.2 -0.89,1.45 -4.6,7 -5,8.09 1.46,0.06 3.77,0.24 4.79,-0.33z"/>
   <path fill="#292929" d="M791.95 163.54c0.29,0.49 0.33,0.34 0.06,1.01l-0.43 0.68c-0.01,-0.03 -0.07,0.09 -0.09,0.14l22.73 -0.03c0.12,-2.02 0.35,-2.95 -1.07,-4.28 -0.86,-0.81 -2.28,-1.64 -3.62,-1.9 0.86,0.94 1.69,2.39 1.08,4.21 -2.96,0.13 -6.18,0.02 -9.17,0.02 -2.06,0 -7.87,-0.25 -9.5,0.14z"/>
   <path fill="#292929" d="M715.76 163.52c0.36,1.05 -0.08,1.03 -0.45,1.86l22.61 0c1.01,-3.92 -2.64,-5.94 -4.61,-6.21 0.76,1.14 1.82,2.01 1.09,4.17 -2.2,0.32 -6.69,0.06 -9.14,0.06 -2.29,0 -7.57,-0.27 -9.51,0.11z"/>
   <path fill="#4D4C4C" d="M746.43 41.36c3.94,0.34 3.17,0.08 4.41,-1.98l6.53 -11.63c0.4,-0.69 0.4,-0.49 0.54,-1.23l-2.92 0c-0.6,0.18 -7.47,12.91 -8.56,14.83z"/>
   <path fill="#4D4C4C" d="M586.43 41.37c0.6,-0.91 7.93,-13.7 8.24,-14.84l-3.27 0.01 -8.16 14.87 3.18 -0.04z"/>
   <path fill="#4D4C4C" d="M1048.71 26.53l-3.33 0 -6.19 11.14c-0.58,1.02 -1.71,2.7 -1.97,3.73l3.08 -0.02 8.4 -14.86z"/>
   <path fill="#292929" d="M702.12 165.55c-0.67,-2.1 1.95,-2.81 3.72,-3.14 1.23,-0.22 5.45,-0.77 6.54,-0.24 0.27,-2.44 -5.45,-2.06 -7.36,-1.96 -2.4,0.13 -6.54,0.44 -6.6,3.07 0.49,1.11 2.25,2.08 3.69,2.26z"/>
   <path fill="#292929" d="M778.45 165.53c-1.37,-1.54 2.03,-2.81 3.57,-3.11 1.29,-0.26 5.34,-0.76 6.56,-0.26 0.43,-2.83 -7.99,-2.04 -10.12,-1.63 -1.54,0.29 -3.85,1.08 -3.81,2.53 0.04,1.15 2.34,2.41 3.79,2.46z"/>
   <path fill="#292929" d="M1007.05 165.55c-0.6,-2.03 1.94,-2.79 3.72,-3.14 1.62,-0.32 4.98,-0.65 6.62,-0.29 0.25,-0.59 -0.71,-1.2 -1.16,-1.4 -2.46,-1.1 -12.62,-0.82 -12.84,2.17 -0.1,1.4 2.37,2.44 3.66,2.65z"/>
   <path fill="#4D4C4C" d="M914.49 25.36l1.12 0c1.31,-0.47 0.76,-1.54 2.48,-1.67 1.46,0.67 1.69,2.68 4.18,1.13 1.02,-0.64 2.4,-2.17 2.99,-3.57l-1.67 -0.08c-0.59,1 -0.9,1.44 -2.04,1.68 -0.78,-0.6 -2.24,-3.38 -5.32,-0.17 -0.65,0.68 -1.58,1.83 -1.74,2.68z"/>
   <path fill="#4D4C4C" d="M1092.6 25.31l1.65 0.06c0.38,-1.14 1.01,-1.68 2.26,-1.66 1.2,1.27 2.02,2.45 4.05,1.01 0.77,-0.55 2.53,-2.43 2.89,-3.5l-1.42 -0.03c-0.77,0.51 -1.31,1.98 -2.33,1.56 -0.94,-0.39 -0.85,-1.74 -2.83,-1.56 -1.7,0.15 -3.78,2.64 -4.28,4.13z"/>
   <path fill="#2B2F2D" d="M701.84 175.4c1.13,0.28 0.22,0.08 0.59,-0.15 -0.82,-0.26 -1.61,-0.76 -2.49,-1.09 -0.96,-0.36 -1.8,-0.65 -2.76,-0.97 -1.81,-0.6 -3.76,-1.06 -5.6,-1.62 -1.9,-0.58 -9.95,-3.11 -11.29,-3.14 1.14,1.41 8.03,3.15 10.41,3.84 1.88,0.54 3.73,1.05 5.62,1.61 1.42,0.42 4.16,1.37 5.52,1.52z"/>
   <path fill="#2B2F2D" d="M779.3 175.93c-1.61,-1.85 -7.92,-3.39 -10.88,-4.19 -1.92,-0.52 -3.83,-1.13 -5.77,-1.66l-4.31 -1.26c-0.63,-0.21 -1.07,-0.43 -1.53,-0.16 1.88,1.52 8.17,3.03 11.06,3.86 2.03,0.58 3.83,1.12 5.78,1.66 2.08,0.58 3.71,1.18 5.66,1.75z"/>
   <path fill="#2B2F2D" d="M1007.68 175.73c-0.21,-0.32 0.07,-0.08 -0.42,-0.46 -0.18,-0.15 -0.41,-0.25 -0.66,-0.38 -2.88,-1.42 -6.87,-2.46 -9.91,-3.29l-11.82 -3.36c2.45,2.04 12.8,4.58 17.04,5.8l5.78 1.69z"/>
   <path fill="#4D4C4C" d="M1046.98 24.03l3.29 -0.02c0.48,-0.9 1.03,-1.99 1.52,-2.9 -2.84,-0.54 -3.71,-0.17 -4.8,2.91z"/>
   <path fill="#4D4C4C" d="M592.99 24.03l3.34 0c0.41,-1.06 1.24,-2.06 1.5,-2.96l-3.26 -0.04c-0.57,0.98 -1.22,2.03 -1.59,3z"/>
   <path fill="#4D4C4C" d="M756.24 24.01l3.34 0.01c0.39,-1.12 1.13,-1.87 1.5,-3.01l-3.21 0.01c-0.43,0.57 -1.44,2.4 -1.64,2.99z"/>
   <path fill="#292929" d="M995.79 181.08c0.23,-2.07 0.78,-1.49 1.33,-2.66l-4.66 -0.11c-0.76,1.82 2.18,3.16 3.33,2.78z"/>
   <path fill="#292929" d="M767.05 181.08c0.2,-1.89 0.81,-1.57 1.33,-2.66l-4.65 -0.12c-0.7,1.83 2.15,3.17 3.32,2.78z"/>
   <path fill="#292929" d="M690.8 181.04c-0.05,-1.56 0.9,-1.63 1.39,-2.63l-4.62 -0.02c-1.27,1.3 2.29,3.32 3.23,2.65z"/>
  </g>
 </g>
</svg>
